P3
# 8-bit ppm RGB
64 64
255
 64  64  64 131 131 131 208 208 208 209 209 209 157 157 157  97  97  97  32  32  32   2   2   2
  0   0   0   0   0   0   0   0   0   0   0   0   4   4   4 157 157 157 219 219 219 220 220 220
221 221 221 221 221 221 221 221 221 220 220 220 202 202 202 150 150 150  89  89  89  22  22  22
  1   1   1   4   4   4  11  11  11   0   0   0  34  34  34 167 167 167 217 217 217 220 220 220
221 221 221 221 221 221 221 221 221 221 221 221 221 221 221 221 221 221 221 221 221 219 219 219
178 178 178   5   5   5 143 143 143 219 219 219 191 191 191  25  25  25  61  61  61 214 214 214
219 219 219 176 176 176   0   0   0   7   7   7 199 199 199 182 182 182   0   0   0  13  13  13
182 182 182 221 221 221 221 221 221 221 221 221 221 221 221 221 221 221 190 190 190  53  53  53
 63  63  63 153 153 153 241 241 241 255 255 255 255 255 255 255 255 255 253 253 253 212 212 212
 90  90  90   0   0   0   0   0   0   0   0   0   0   0   0  31  31  31 176 176 176 234 234 234
250 250 250 252 252 252 253 253 253 255 255 255 255 255 255 255 255 255 255 255 255 245 245 245
135 135 135   0   0   0   0   0   0   0   0   0   0   0   0   3   3   3 126 126 126 244 244 244
254 254 254 255 255 255 255 255 255 255 255 255 255 255 255 255 255 255 255 255 255 253 253 253
240 240 240  70  70  70  64  64  64 253 253 253 252 252 252 190 190 190   8   8   8 143 143 143
250 250 250 172 172 172   0   0   0   7   7   7 191 191 191 170 170 170   0   0   0  29  29  29
 81  81  81 253 253 253 255 255 255 255 255 255 255 255 255 255 255 255 221 221 221  64  64  64
 57  57  57 150 150 150 241 241 241 255 255 255 255 255 255 255 255 255 254 254 254 226 226 226
 23  23  23   1   1   1   0   0   0   2   2   2   0   0   0   0   0   0   0   0   0   4   4   4
 70  70  70 138 138 138 199 199 199 245 245 245 250 250 250 251 251 251 249 249 249 239 239 239
185 185 185   3   3   3   0   0   0  31  31  31   0   0   0   0   0   0   0   0   0  58  58  58
211 211 211 252 252 252 255 255 255 255 255 255 255 255 255 255 255 255 248 248 248 178 178 178
 80  80  80  29  29  29   6   6   6 179 179 179 251 251 251 247 247 247 112 112 112  28  28  28
239 239 239 158 158 158   0   0   0   5   5   5 164 164 164 160 160 160   5   5   5 151 151 151
  8   8   8 201 201 201 255 255 255 255 255 255 255 255 255 255 255 255 221 221 221  64  64  64
  1   1   1  72  72  72 212 212 212 251 251 251 251 251 251 250 250 250 242 242 242 114 114 114
 12  12  12 112 112 112   8   8   8 167 167 167  34  34  34   1   1   1   1   1   1  70  70  70
 48  48  48   2   2   2   0   0   0  13  13  13  84  84  84 105 105 105  51  51  51   1   1   1
  0   0   0   1   1   1   0   0   0   0   0   0   0   0   0   1   1   1   0   0   0   0   0   0
 11  11  11 154 154 154 249 249 249 254 254 254 255 255 255 249 249 249 155 155 155   2   2   2
 65  65  65  99  99  99  22  22  22   3   3   3 132 132 132 246 246 246 197 197 197   7   7   7
195 195 195 156 156 156   0   0   0   5   5   5 144 144 144 164 164 164  11  11  11 223 223 223
 43  43  43  96  96  96 254 254 254 255 255 255 255 255 255 255 255 255 221 221 221  64  64  64
 25  25  25   6   6   6   7   7   7  98  98  98 118 118 118  79  79  79  63  63  63   4   4   4
 30  30  30  69  69  69   4   4   4 152 152 152 189 189 189 125 125 125   3   3   3   0   0   0
  0   0   0   1   1   1   1   1   1   2   2   2   4   4   4   4   4   4   2   2   2   1   1   1
 26  26  26 116 116 116   8   8   8   1   1   1  81  81  81 126 126 126  35  35  35   0   0   0
  0   0   0   1   1   1  85  85  85 228 228 228 252 252 252 235 235 235  21  21  21 107 107 107
254 254 254 250 250 250 169 169 169   0   0   0   2   2   2 104 104 104 175 175 175  10  10  10
200 200 200 164 164 164   0   0   0  12  12  12 127 127 127 171 171 171  10  10  10 225 225 225
146 146 146  13  13  13 227 227 227 255 255 255 254 254 254 251 251 251 220 220 220  64  64  64
 63  63  63 140 140 140 115 115 115   0   0   0   0   0   0   0   0   0   0   0   0   3   3   3
 72  72  72  47  47  47   0   0   0   0   0   0   2   2   2   2   2   2   2   2   2   1   1   1
 65  65  65 114 114 114 172 172 172 204 204 204 239 239 239 238 238 238 187 187 187 131 131 131
 71  71  71  11  11  11   2   2   2   0   0   0   4   4   4 103 103 103 138 138 138  97  97  97
  0   0   0   0   0   0   0   0   0  25  25  25 166 166 166 184 184 184   7   7   7 204 204 204
250 250 250 250 250 250 238 238 238  48  48  48   0   0   0   0   0   0   2   2   2  73  73  73
248 248 248 175 175 175   0   0   0   4   4   4 122 122 122 175 175 175  10  10  10 225 225 225
228 228 228  16  16  16 138 138 138 254 254 254 226 226 226 131 131 131 210 210 210  64  64  64
 64  64  64 152 152 152 216 216 216  20  20  20   0   0   0   0   0   0   0   0   0  21  21  21
163 163 163 231 231 231  48  48  48  86  86  86 200 200 200 157 157 157 109 109 109   5   5   5
  0   0   0   2   2   2  18  18  18  87  87  87 149 149 149 210 210 210 248 248 248 251 251 251
252 252 252 246 246 246 196 196 196  54  54  54   0   0   0   0   0   0   0   0   0   0   0   0
  0   0   0   0   0   0   0   0   0   0   0   0   0   0   0  28  28  28   1   1   1  83  83  83
 95  95  95  89  89  89  66  66  66  17  17  17   0   0   0   1   1   1   6   6   6 147 147 147
250 250 250 191 191 191   0   0   0   2   2   2 102  83  86 106  19  32   2   0   0 130  26  42
203 153 161 100 100 100  44  44  44 249 249 249 209 209 209   8   8   8 132 132 132  63  63  63
 64  64  64 153 153 153 239 239 239 204 204 204  54  54  54   0   0   0   0   0   0   0   0   0
  0   0   0  18  18  18  33  33  33  33  33  33 247 247 247 254 254 254 247 247 247 116 116 116
 11  11  11 171 171 171 134 134 134  68  68  68   6   6   6   1   1   1  24  24  24  98  98  98
163 163 163 221 221 221 245 245 245 180 180 180   0   0   0   0   0   0   0   0   0   0   0   0
  1   1   1  84  84  84  25  25  25   0   0   0   8   8   8   2   2   2   0   0   0  24  24  24
 66  66  66  78  78  78  98  98  98 125 125 125  60  60  60  43  43  43 103 103 103  12  12  12
188 188 188 207 207 207   0   0   0   2   2   2  70   6  16  98   0  12   2   0   0 114   0  16
138   8  27 155 117 123   8   8   8 190 190 190 246 246 246  92  92  92  36  36  36  61  61  61
 64  64  64 153 153 153 241 241 241 255 255 255 244 244 244  88  88  88   5   5   5   9   9   9
  1   1   1   0   0   0   0   0   0   2   2   2 103 103 103 211 211 211 248 248 248 216 216 216
 11  11  11 136 136 136 250 250 250 246 246 246 206 206 206 105 105 105   6   6   6   0   0   0
  0   0   0   1   1   1  23  23  23  12  12  12   0   0   0   0   0   0   0   0   0   0   0   0
  0   0   0  19  19  19  56  56  56   0   0   0   0   0   0  32  32  32   0   0   0   7   7   7
144 144 144 247 247 247 254 254 254 252 252 252 194 194 194   6   6   6 141 141 141  73  73  73
 28  28  28 190 190 190   0   0   0   2   1   1  71   0   6 101   0  13   2   0   0 111   0  15
136   0  21 133   7  26  45  45  45 102 102 102 252 252 252 198 198 198   5   5   5  40  40  40
 64  64  64 153 153 153 241 241 241 255 255 255 241 241 241  36  36  36 115 115 115 237 237 237
172 172 172 101 101 101  31  31  31   0   0   0   0   0   0   2   2   2  67  67  67 112 112 112
 39  39  39  15  15  15  88  88  88  24  24  24   0   0   0   0   0   0   3   3   3  45  45  45
 77  77  77 104 104 104 102 102 102  37  37  37   2   2   2   0   0   0   0   0   0   0   0   0
 32  32  32   0   0   0  11  11  11  28  28  28   1   1   1   1   1   1   0   0   0   0   0   0
  1   1   1  72  72  72 219 219 219 252 252 252 246 246 246  98  98  98  29  29  29 204 204 204
 40  40  40  44  44  44   0   0   0   1   0   0  77   0   7  99   0  12   3   0   0 113   0  16
136   0  21 132   0  20 132 132 132  21  21  21 241 241 241 244 244 244  57  57  57  10  10  10
 64  64  64 153 153 153 241 241 241 252 252 252 199 199 199   6   6   6 189 189 189 255 255 255
255 255 255 255 255 255 247 247 247 108 108 108   5   5   5 115 115 115  13  13  13   0   0   0
  0   0   0   0   0   0   0   0   0   0   0   0   1   1   1  19  19  19  82  82  82 113 113 113
138 138 138 163 163 163 189 189 189 213 213 213 197 197 197  16  16  16   0   0   0   0   0   0
  0   0   0   0   0   0  12  12  12 134 134 134 170 170 170 141 141 141   0   0   0   5   5   5
  1   1   1   0   0   0  17  17  17 155 155 155 236 236 236 215 215 215  16  16  16 109 109 109
197 197 197   5   5   5   0   0   0   1   0   0  83   0   9  97   0  12   8   8   8 115   0  16
136   0  21 135   0  21 211 211 211   6   6   6 170 170 170 250 250 250 145 145 145   0   0   0
 64  64  64 153 153 153 241 241 241 248 248 248 132 132 132  23  23  23 246 246 246 255 255 255
255 255 255 255 255 255 250 250 250 181 181 181   0   0   0  34  34  34   3   3   3  45  45  45
 79  79  79   2   2   2   0   0   0  21  21  21  96  96  96 100 100 100  76  76  76  48  48  48
 17  17  17   3   3   3   2   2   2   2   2   2   1   1   1   0   0   0   0   0   0   0   0   0
  0   0   0  14  14  14   0   0   0   0   0   0   0   0   0   3   3   3   2   2   2 107 107 107
151 151 151  62  62  62   0   0   0   0   0   0   8   8   8  84  84  84  65  65  65   7   7   7
189 189 189 153 153 153   0   0   0   1   0   0  90   0  10  95   0  11   9   9   9 117   0  17
136   0  21 136   0  21 244 244 244  61  61  61  93  93  93 255 255 255 207 207 207   3   3   3
 64  64  64 153 153 153 241 241 241 243 243 243  60  60  60  94  94  94 255 255 255 210 159 167
151  32  50 133   0  20 107   0  14  31   0   1   0   0   0  19   0   1 100   0  13 135   0  21
149  31  49 159 120 126   0   0   0   0   0   0   7   7   7  97  97  97 199 199 199 250 250 250
252 252 252 241 241 241 217 217 217 189 189 189 128 128 128   0   0   0  44  44  44   0   0   0
  0   0   0   0   0   0   0   0   0   0   0   0   0   0   0   1   1   1   0   0   0   0   0   0
  1   1   1  26  26  26   0   0   0  46  46  46  19  19  19   0   0   0   0   0   0   0   0   0
 51  51  51 230 230 230  65  65  65   1   0   0  95   0  11  91   0  11  10  10  10 123   6  23
136   0  21 136   0  21 194 131 141 133 133 133  23  23  23 249 249 249 215 215 215  28  28  28
 63  63  63 153 153 153 240 240 240 218 218 218   6   6   6 144 119 123 151  32  50 135   0  21
128   0  19  68   0   6   2   0   0  18   0   1  29   0   1  22   0   1 135   0  21 136   0  21
136   0  21 134   7  26  61  44  47  40  40  40 144 144 144  37  37  37   3   3   3  64  64  64
171 171 171 244 244 244 252 252 252 250 250 250 168 168 168   9   9   9 203 203 203  19  19  19
 35  35  35  11  11  11  81  81  81  66  66  66  10  10  10 138 138 138  62  62  62   4   4   4
105 105 105  89  89  89  17  17  17   2   2   2  11  11  11   0   0   0   0   0   0   0   0   0
  2   2   2  96  96  96  91  91  91   0   0   0  23   0   1  79   0   8  11  11  11 174 103 114
136   0  21 136   0  21 138   8  27 187 187 187   8   8   8 210 210 210 219 219 219  51  51  51
 32  32  32 147 147 147 235 235 235 150 150 150  14  14  14 134  21  39 134   0  21 116   0  16
 28   0   1   2   0   0  65   0   5 128   0  19  89   0  10   2   0   0 115   0  16 133   0  20
133   0  20 133   0  20  94   3  15   5   3   3 193 193 193 179 179 179 149 149 149  68  68  68
  3   3   3  34  34  34 141 141 141 224 224 224 127 127 127  29  29  29 244 244 244  71  71  71
  1   1   1  89  89  89   5   5   5 123 123 123   8   8   8 146 146 146 170 170 170   9   9   9
219 219 219 255 255 255 246 246 246 184 184 184 100 100 100  17  17  17   1   1   1   0   0   0
  0   0   0   0   0   0   4   4   4   2   0   0   1   0   0   4   0   0  22  22  22 249 245 246
136   0  21 136   0  21 135   0  21 223 223 223   5   5   5 177 177 177 221 221 221  60  60  60
  0   0   0  36  36  36 190 190 190  77  77  77  76  76  76 133   0  20  99   0  12   8   0   0
 16   0   1 195 192 193 255 255 255 254 254 254 228 228 228   9   9   9 144 144 144  50  31  34
 38   0   2 126   0  19 128   0  19  10   0   0  16  16  16   0   0   0  30  30  30 193 193 193
204 204 204 103 103 103   8   8   8   7   7   7  25  25  25  70  70  70 241 241 241  95  95  95
  1   1   1  60  60  60  73  73  73  21  21  21  72  72  72  28  28  28 210 210 210  13  13  13
145 145 145 254 254 254 251 251 251 250 250 250 249 249 249 240 240 240 173 173 173  75  75  75
  2   2   2   0   0   0   0   0   0  14   0   0  53   0   4   0   0   0  75  75  75 254 254 254
136   0  21 136   0  21 136   0  21 235 235 235   4   4   4 166 166 166 221 221 221  62  62  62
 45  45  45  21  21  21   3   3   3   7   7   7 145 145 145  87   0   9   2   0   0  36   0   2
123   0  18 255 255 255 255 255 255 255 255 255 244 244 244  67  67  67  78  78  78  74  74  74
  0   0   0  40   0   2 128   0  19  57   0   4   0   0   0  54  54  54  70  70  70  26  26  26
218 218 218 254 254 254 229 229 229 131 131 131   1   1   1   2   2   2  73  73  73  69  69  69
  0   0   0   4   4   4 141 141 141  24  24  24  40  40  40   9   9   9 117 117 117  89  89  89
 55  55  55 212 212 212 124 124 124  78  78  78  71  71  71  97  97  97 146 146 146 194 194 194
191 191 191  45  45  45   0   0   0   0   0   0   0   0   0   0   0   0  28  28  28 223 223 223
136   0  21 136   0  21 135   0  21 177 134 141   6   6   6 182 182 182 221 221 221  63  63  63
 63  63  63 142 142 142  76  76  76   0   0   0  43  43  43   1   0   0  48   0   3 132   0  20
136   0  21 255 255 255 255 255 255 255 255 255 248 248 248 130 130 130  19  19  19 172 172 172
  0   0   0   1   0   0  71   0   6  99   0  12   1   1   1  80  80  80 230 230 230  40  40  40
 75  75  75 252 252 252 254 254 254 230 230 230   3   3   3  92  92  92  51  51  51   1   1   1
  0   0   0   7   7   7  43  43  43 164 164 164   0   0   0   2   2   2  12  12  12 141 141 141
  0   0   0   2   2   2  26  26  26  86  86  86  95  95  95  64  64  64  10  10  10   3   3   3
 27  27  27  72  72  72   0   0   0   0   0   0   0   0   0   0   0   0   1   1   1  73  73  73
135   7  27 133   0  20 130   0  19  70   2   9  16  16  16 231 231 231 221 221 221  64  64  64
 63  63  63 146 146 146  71  71  71   0   0   0   0   0   0   1   0   0  84   0   9 134   0  20
136   0  21 255 255 255 255 255 255 255 255 255 252 252 252 188 188 188   8   8   8 194 194 194
 68  68  68   0   0   0   3   0   0 101   0  13  17  17  17  56  56  56 251 251 251 180 180 180
  7   7   7 174 174 174 252 252 252 191 191 191   8   8   8 206 206 206 249 249 249 142 142 142
  0   0   0   1   1   1   3   3   3 109 109 109  88  88  88   0   0   0   0   0   0  51  51  51
  1   1   1  74  74  74 245 245 245 255 255 255 255 255 255 255 255 255 247 247 247 197 197 197
115 115 115  11  11  11   0   0   0   0   0   0  12   0   0  51   0   3   6   6   6   2   2   2
 35  20  22  46   0   3  35   0   2   2   0   0 128 128 128 255 255 255 221 221 221  64  64  64
 39  39  39 131 131 131   1   1   1   0   0   0   0   0   0   0   0   0   0   0   0  49   0   3
125   0  18 254 254 254 255 255 255 255 255 255 255 255 255 235 235 235  14  14  14 145 145 145
201 201 201   0   0   0   0   0   0  24   0   1  70  70  70  16  16  16 247 247 247 245 245 245
 75  75  75  54  54  54 244 244 244 146 146 146  16  16  16 245 245 245 252 252 252 197 197 197
  4   4   4 153 153 153  74  74  74   0   0   0   1   1   1   0   0   0   0   0   0   0   0   0
  1   1   1  39  39  39 251 251 251 255 255 255 255 255 255 255 255 255 255 255 255 255 255 255
242 242 242  41  41  41  61  61  61  22   0   1   0   0   0  25   0   1 148 148 148 104 104 104
  0   0   0  10   0   0  42   0   2  86   0   9 253 253 253 255 255 255 221 221 221  64  64  64
  0   0   0  25  25  25   0   0   0   2   2   2  14  14  14  11   0   1   0   0   0   0   0   0
 19   0   1 206 206 206 252 252 252 255 255 255 255 255 255 244 244 244  69  69  69  91  91  91
248 248 248  64   0   5   0   0   0   0   0   0   9   9   9   8   8   8 208 208 208 252 252 252
190 190 190   7   7   7 167 167 167  98  98  98  63  63  63 255 255 255 254 254 254 221 221 221
  6   6   6 178 178 178 222 222 222  14  14  14   7   7   7  15  15  15   0   0   0   1   1   1
 66  66  66   6   6   6 192 192 192 255 255 255 255 255 255 255 255 255 255 255 255 253 253 253
216 216 216   5   5   5 176 176 176 129   0  19  12   0   0   0   0   0   3   3   3  40  40  40
  3   3   3  18   0   1 126   0  19 136   0  21 255 255 255 255 255 255 221 221 221  64  64  64
 25  25  25   0   0   0   7   7   7 107 107 107  16  16  16 165 111 120  33   0   1   0   0   0
  0   0   0  11  11  11 159 159 159 251 251 251 255 255 255 248 248 248 124 124 124  32  32  32
208 158 166 129   0  19  38   0   2   0   0   0   0   0   0   4   4   4 157 157 157 255 255 255
244 244 244  66  66  66  51  51  51  44  44  44 117 117 117 255 255 255 255 255 255 240 240 240
 10  10  10 154 154 154 249 249 249 141 141 141   9   9   9 185 185 185  78  78  78   0   0   0
  0   0   0   1   1   1 102 102 102 249 249 249 253 253 253 255 255 255 255 255 255 250 250 250
160 160 160  11  11  11 232 232 232 131   0  20  53   0   4  19   0   1 185 185 185  41  41  41
  0   0   0   0   0   0  51   0   3 135   0  21 255 255 255 255 255 255 221 221 221  64  64  64
  6   6   6   0   0   0   4   4   4   3   3   3   4   4   4 161 161 161 128   0  19  43   0   2
  0   0   0   7   7   7   3   3   3 103 103 103 239 239 239 216 179 185 103  19  32   2   0   0
115   0  16 136   0  21 129   0  19  71   0   6  13  13  13   1   1   1  86  86  86 255 255 255
251 251 251 176 176 176   0   0   0   5   5   5 169 169 169 255 255 255 255 255 255 243 243 243
 41  41  41 127 127 127 255 255 255 238 238 238  46  46  46  61  61  61  48  48  48   0   0   0
  0   0   0   3   3   3   0   0   0  55  55  55 173 173 173 247 247 247 252 252 252 247 247 247
116 116 116  43  43  43 250 250 250 111   0  15  34   0   2   0   0   0  15  15  15   1   1   1
  2   2   2   4   0   0   2   0   0  92   0  11 254 254 254 255 255 255 221 221 221  64  64  64
  0   0   0  11  11  11 191 191 191  42  42  42   1   1   1  56  56  56 134   0  21 129   0  19
 44   0   3   6   6   6  85  85  85   8   5   6  27   2   4 112   0  15 118   0  17   1   0   0
 89   0  10 136   0  21 136   0  21 180 101 113 142 142 142   0   0   0  19  19  19 242 242 242
255 255 255 243 243 243  44  44  44   9   9   9 216 216 216 255 255 255 255 255 255 244 244 244
 71  71  71  99  99  99 255 255 255 251 251 251 179 179 179   0   0   0   1   1   1  59  59  59
 46  46  46   2   2   2   0   0   0   6   6   6   3   3   3  50  50  50 167 167 167 235 235 235
 71  71  71  85  85  85 152 152 152   1   0   0   1   0   0   1   0   0 131 131 131 171 171 171
193 193 193 122   0  18  41   0   2  12   0   0 231 231 231 255 255 255 221 221 221  64  64  64
  0   0   0  67  67  67 240 240 240 227 227 227  63  63  63   6   6   6  86   0   9 134   0  21
128   0  19  68  55  57   6   0   1  78   0   8  19   0   1   8   0   0  91   0  10  15   0   0
 61   0   5 177  88 102 251 247 248 255 255 255 237 237 237  35  35  35   5   5   5 173 173 173
255 255 255 247 247 247 117 117 117   8   8   8 207 207 207 255 255 255 255 255 255 246 246 246
 98  98  98  70  70  70 255 255 255 221 183 189 159  61  77  65  47  50   0   0   0  57  57  57
211 211 211  13  13  13   0   0   0  52  52  52 193 193 193  79  79  79   3   3   3  34  34  34
 12  12  12  39  39  39   3   3   3  55   0   4  84   0   9   2   0   0 230 230 230 255 255 255
255 255 255 135   0  21 117   0  17   8   0   0  96  96  96 253 253 253 221 221 221  64  64  64
  0   0   0 123 123 123 241 241 241 255 255 255 237 237 237  55  55  55   1   0   0  81   0   8
134   0  20 135  21  39  28   0   1  11   0   0 103   0  13  37   0   2   1   0   0  12   3   4
 68  68  68 255 255 255 221 183 189 150  32  50 132   0  20  96  17  29   1   1   1  89  89  89
254 254 254 212 175 181  40   9  14   1   1   1 102 102 102 254 254 254 255 255 255 248 248 248
124 124 124  39  39  39 255 255 255 147  24  43 135   0  21 114   5  21   2   2   2  10  10  10
221 221 221 158 158 158   0   0   0   7   7   7 168 139 144 164  63  79 165 124 131  85  85  85
  0   0   0   0   0   0  48  48  48 125   0  18  89   0  10   2   0   0 228 228 228 255 255 255
255 255 255 136   0  21 133   0  20  84   0   9   8   8   8 182 182 182 220 220 220  64  64  64
  9   9   9 153 153 153 241 241 241 255 255 255 251 251 251 175 175 175   0   0   0   1   0   0
 69   0   6 133   0  20 120   0  17  16   0   1  27   0   1 165  92 103  95  95  95   0   0   0
 18  18  18 247 247 247 146  24  43 116   0  16  93   0  11 120   0  17  27   0   2  14  14  14
234 234 234 136  21  39   2   0   0  12   0   1  12  12  12 224 224 224 255 255 255 249 249 249
149 149 149  13  13  13 249 249 249 136   0  21 136   0  21 130   0  20  49  49  49   4   4   4
151 151 151 245 245 245  82  82  82   1   1   1  52   4   9 136   0  21 140   8  28 239 239 239
 13  13  13  27  27  27   4   4   4  11   0   0  41   0   2   2   0   0 223 223 223 255 255 255
255 255 255 136   0  21 136   0  21 130   0  20  74  74  74  44  44  44 209 209 209  64  64  64
 37  37  37 153 153 153 241 241 241 255 255 255 255 255 255 243 243 243  23   0   1   0   0   0
  1   0   0  56   0   4 130   0  20 105   0  14  11  11  11 102 102 102 239 239 239  88  88  88
  7   7   7 193 193 193 127   0  19   9   0   0   0   0   0  12   0   0  86  45  51   8   8   8
 74  74  74  23   0   1   0   0   0  36   0   2  10  10  10 115 115 115 255 255 255 251 251 251
175 175 175  10  10  10 226 226 226 136   0  21 136   0  21 130   0  20  49  49  49   1   1   1
 62  62  62 252 252 252 221 221 221  15  10  11   3   0   0 120   0  17 136   0  21 252 252 252
216 216 216 240 240 240 211 211 211  48   0   3   1   0   0   1   0   0 129 129 129 234 234 234
251 251 251 136   0  21 136   0  21 135   0  21 209 209 209  13  13  13 115 115 115  63  63  63
 59  59  59 153 153 153 241 241 241 254 254 254 251 251 251 250 250 250  91   0  11   0   0   0
 39   0   2   2   0   0  44   0   3 100   0  13  28  19  20   5   5   5 149 149 149 224 224 224
  2   2   2  54  54  54 107   0  14   1   0   0  77   0   7  57  57  57   1   1   1   6   6   6
 61  61  61  39   0   2  15   0   0  20   0   1   2   2   2   0   0   0 106 106 106 203 203 203
198 198 198   7   7   7 176 145 150 136   0  21 136   0  21 130   0  20  51  51  51  16  16  16
  7   7   7 187 187 187 250 250 250  92  11  24   1   0   0  65   0   5 136   0  21 255 255 255
255 255 255 255 255 255 255 255 255 133   0  20  87   0  10   0   0   0   3   3   3  20  20  20
111  91  94 121   0  18 134   0  20 135   0  21 247 247 247 121 121 121  16  16  16  56  56  56
 64  64  64 153 153 153 239 239 239 210 210 210 124 124 124 224 224 224 129   0  19  28   0   1
 28   0   1  91   3  15   2   0   0   0   0   0  16   0   1  44  44  44   1   1   1  66  66  66
 17  17  17   2   2   2  53   0   4   2   0   0  86   0   9  80  80  80  15  15  15   5   5   5
162 162 162 130   0  20 131   0  20 127   0  19 145 109 114   2   2   2  22  22  22  20  20  20
 75  75  75   3   3   3  99  13  26 136   0  21 136   0  21 130   0  20  57  57  57  94  94  94
 28  28  28  52  52  52 213 177 182 131   0  20  41   0   2   9   0   0 124   0  18 255 255 255
255 255 255 255 255 255 255 255 255 138   8  27  94   0  11   2   0   0 148 100 107 119 119 119
  4   0   0   3   0   0  59   0   4 116   0  16 250 250 250 227 227 227  20  20  20  22  22  22
 64  64  64 153 153 153 236 236 236 155 155 155   0   0   0  30  30  30 105   0  14  94   0  11
  2   0   0 134  90  97  84   0   9   0   0   0  29   0   1 210 210 210  42  42  42   0   0   0
  0   0   0   0   0   0   3   0   0   1   0   0  56   0   4  43  43  43 170 170 170  96  96  96
 12  12  12  94   0  11 135   0  21 136   0  21 133   7  26  78  78  78  38  38  38  52  52  52
 17  17  17   0   0   0  15   0   0  90   0  10 130   0  20 130   0  20  57  57  57 105 105 105
130 130 130   3   3   3  80   8  19 134   0  21 112   0  15   1   0   0  52   0   3 253 253 253
255 255 255 255 255 255 255 255 255 186 110 122  94   0  11   2   0   0 121   6  23 209 158 166
123   0  18  66   0   6   6   0   0   4   1   1  98  98  98 193 193 193 116 116 116   1   1   1
 64  64  64 153 153 153 240 240 240 227 227 227  15  15  15   0   0   0   6   0   0  97   0  12
 32   0   1  51  51  51  93   0  11   0   0   0   2   0   0  41  29  31 171 171 171   4   4   4
  0   0   0   0   0   0   0   0   0   1   0   0  27   0   1  84  84  84 248 248 248 242 242 242
 87  87  87   4   0   0 101   0  13 135   0  21 134   0  20 142 107 112   0   0   0   0   0   0
  0   0   0   0   0   0   7   0   0   3   0   0  24   0   1  77   0   7  55  55  55 110 110 110
223 223 223   3   1   2   6   0   0 119   0  17 131   0  20  44   0   3   1   0   0 187 187 187
255 255 255 255 255 255 255 255 255 247 243 244  97   4  16   2   0   0 118   0  17 136   0  21
136   0  21 136   0  21 127   0  19 146 146 146  38  38  38   3   3   3  31  31  31   0   0   0
 63  63  63 153 153 153 241 241 241 249 249 249 141 141 141   0   0   0   2   0   0   4   0   0
 66   0   5   2   2   2  51   1   5   1   0   0  82   0   8  12   0   1  40  40  40 109 109 109
  0   0   0   0   0   0   0   0   0   1   0   0  14   0   0 139 139 139 255 255 255 255 255 255
238 238 238  35   0   2   7   0   0 107   0  14 135   0  21 127   0  19   9   0   1   0   0   0
 19  18  18  11   0   0   0   0   0  20   0   1  38   0   2   4   0   0   4   4   4  53  53  53
175 128 136  56   0   4   0   0   0  49   0   3 133   0  20 103   0  13   0   0   0  34  23  25
241 241 241 255 255 255 255 255 255 251 251 251 140  94 101   2   0   0 118   0  17 136   0  21
136   0  21 136   0  21 177  88 102 255 255 255 248 248 248 176 176 176  69  69  69   0   0   0
 39  39  39 151 151 151 241 241 241 255 255 255 238 238 238  46  46  46  19   0   1  28   0   1
  2   0   0  14  14  14   2   1   1   1   0   0  93   0  11 112   0  15  37  37  37  30  30  30
 56  56  56   0   0   0   0   0   0   1   0   0   8   0   0 147 110 116 255 255 255 255 255 255
254 254 254 124   0  18  27   0   1  10   0   0 101   0  13 109   0  15  45   0   3   0   0   0
  0   0   0   0   0   0   5   0   0   9   0   0   2   0   0  39   0   2   5   5   5   0   0   0
 12   0   1  49   0   3   1   0   0   3   0   1 104   4  18 130   0  20  34   0   2   1   0   0
122 122 122 254 254 254 255 255 255 251 251 251 177 177 177   5   2   3 119   0  17 136   0  21
136   0  21 136   0  21 251 247 248 255 255 255 255 255 255 255 255 255 219 219 219  51  51  51
  0   0   0  96  96  96 230 230 230 245 245 245 245 245 245 178 178 178   1   0   0  69   0   6
 26   0   1   0   0   0   0   0   0   1   0   0  72   0   7 135   0  21 219 219 219  44  44  44
 19  19  19   1   1   1   0   0   0   0   0   0   1   0   0 106   4  19 194 142 150 189 189 189
110  90  93  39   0   2  12   0   0   0   0   0   0   0   0   1   0   0   1   0   0   0   0   0
  0   0   0   0   0   0   0   0   0   1   0   0   0   0   0   0   0   0   0   0   0   0   0   0
  0   0   0   0   0   0   1   0   0   0   0   0  27  14  16 128   0  19  99   0  12   0   0   0
 10  10  10 209 209 209 255 255 255 251 251 251 172 172 172   5   2   3 122   0  18 136   0  21
136   0  21 140   8  28 255 255 255 255 255 255 255 255 255 255 255 255 221 221 221  60  60  60
  0   0   0   0   0   0   0   0   0   0   0   0   6   6   6  19  19  19   0   0   0   2   0   0
 26   0   1   0   0   0   0   0   0   0   0   0  37   0   2 127   0  19 248 248 248 218 218 218
 43  43  43   0   0   0   0   0   0   5   0   0   0   0   0   5   0   0   8   0   0   3   0   0
 14   0   0  41   0   2  63   0   5  67   0   6  24  24  24  18   8  10  74   0   7   2   0   0
 55   0   4  28   0   1   6   1   1 100   0  13 113   0  16  65   0   5   1   0   0  11   0   0
 93   0  11  97   0  12 101  80  83   0   0   0   0   0   0  21   0   1  94   0  11  31   0   1
  0   0   0  35   0   2 134   0  21 133   0  20  87   0  10   3   0   0 125   0  18 136   0  21
136   0  21 136   0  21 199 135 145 255 255 255 255 255 255 255 255 255 221 221 221  62  62  62
  0   0   0  33  33  33   1   1   1  36  36  36 143 143 143 139 139 139  63   2   7   6   0   0
  1   0   0  56  56  56  17  17  17   0   0   0   0   0   0   1   0   0  51  51  51 105 105 105
131 131 131   9   9   9   1   1   1  15   7   8   0   0   0   0   0   0  12   0   0  99   0  12
128   0  19 131   0  20 132   0  20 180 101 113 216 216 216  52  52  52   5   5   5  12  12  12
134 134 134 156 156 156   0   0   0  33   0   2 130   0  20 131   0  20  64   0   5   0   0   0
  7   0   0 119  48  59 239 239 239 121 121 121   0   0   0   0   0   0   3   0   0  20   0   1
  0   0   0   1   0   0  90   0  10 133   0  20  83   0   9   3   0   0 128   0  19 144  16  36
136   0  21 136   0  21 140   8  28 255 255 255 255 255 255 255 255 255 221 221 221  63  63  63
  3   3   3  32  32  32 125 125 125   6   6   6  97  97  97 240 240 240 194 132 141  84   0   9
  4   1   1 178 178 178 230 230 230  27   0   1   0   0   0  41   0   2 104 104 104  50  50  50
  2   2   2   0   0   0   0   0   0   0   0   0  60  59  59 114  58  67   2   0   0  40   0   2
130   0  20 136   0  21 185 104 116 255 255 255 254 254 254 240 240 240 137 137 137 101 101 101
221 221 221 179 179 179   0   0   0   2   1   1  61   0   5 132   0  20  96  17  29   0   0   0
 56  56  56   8   8   8 141 141 141 195 195 195   5   5   5   0   0   0  53  24  29  35   0   2
  0   0   0   0   0   0   8   0   0 121   0  17  79   0   8   3   0   0 171  85  99 248 239 240
140   8  28 136   0  21 136   0  21 233 207 211 255 255 255 255 255 255 221 221 221  63  63  63
 46  46  46   3   3   3  91  91  91 162 162 162  14  14  14  57  57  57 213 213 213 242 242 242
 78  78  78  38  38  38 235 235 235 119   0  17   3   0   0   6   0   0 197 197 197 252 252 252
195 195 195   3   3   3   0   0   0   0   0   0   0   0   0  23  23  23  42  42  42   1   1   1
 94  94  94 247 247 247 252 252 252 247 247 247 255 255 255 255 255 255 255 255 255 255 255 255
252 252 252 201 201 201   1   1   1  81  81  81   8   8   8 173 173 173 211 211 211   6   6   6
166 166 166 117 117 117   1   1   1  13  13  13  25  25  25   0   0   0  17  17  17 210 210 210
139 139 139   0   0   0   0   0   0  24  24  24  76  76  76  28  28  28 255 255 255 255 255 255
177  88 102 136   0  21 136   0  21 151  32  50 210 159 167 255 255 255 221 221 221  64  64  64
 62  62  62  98  98  98   6   6   6  97  97  97 191 191 191  43  43  43  13  13  13 136 136 136
200 200 200  14  14  14 110 110 110 134   7  26  59   0   4   0   0   0  17  17  17 184 184 184
153 153 153   0   0   0   0   0   0  22  22  22  24  24  24   0   0   0   0   0   0   1   1   1
  3   3   3  97  97  97 163 163 163  78  78  78 218 218 218 255 255 255 255 255 255 255 255 255
254 254 254 221 221 221   6   6   6 170 170 170  89  89  89  16  16  16 116 116 116  14  14  14
 48  48  48  50  50  50   0   0   0   0   0   0  35  35  35  24  24  24   2   2   2 129 129 129
242 242 242  70  70  70   0   0   0   3   3   3   2   2   2   5   5   5 155 155 155 239 239 239
233 207 211 136   0  21 136   0  21 136   0  21 140   8  28 255 255 255 221 221 221  64  64  64
 64  64  64 150 150 150 158 158 158  10  10  10  65  65  65 207 207 207 117 117 117   7   7   7
 26  26  26  40  40  40   6   6   6 145  98 105 108   0  15   0   0   0   0   0   0   4   4   4
 30  30  30   0   0   0   3   3   3  30  30  30 138 138 138  51  51  51  18  18  18 128 128 128
 76  76  76   1   1   1   3   3   3  31  31  31 200 200 200 232 232 232 226 226 226 209 209 209
189 189 189 159 159 159   2   2   2  72  72  72  76  76  76   2   2   2   0   0   0   0   0   0
  0   0   0  68  68  68   2   2   2 129 129 129  21  21  21   0   0   0   0   0   0  38  38  38
251 251 251 198 198 198   1   1   1   0   0   0   1   1   1  42  42  42  17  17  17  55  55  55
166 166 166 179 100 112 136   0  21 136   0  21 136   0  21 195 127 138 221 221 221  64  64  64
 64  64  64 153 153 153 239 239 239 197 197 197  34  34  34  29  29  29 170 170 170 209 209 209
 99  99  99   5   5   5   1   1   1  30  30  30 116 116 116  21  21  21   0   0   0   0   0   0
  0   0   0  17  17  17   2   2   2  26  26  26 169 169 169 224 224 224  49  49  49  37  37  37
213 213 213 141 141 141   0   0   0   0   0   0   0   0   0   3   3   3   9   9   9   8   8   8
  6   6   6   6   6   6   0   0   0  21  21  21  84  84  84  91  91  91   0   0   0   0   0   0
  0   0   0  30  30  30  10  10  10 230 230 230 177 177 177   0   0   0   0   0   0  10  10  10
226 226 226 246 246 246  94  94  94   0   0   0   5   5   5 170 170 170 199 199 199  92  92  92
 16  16  16  72  72  72 138  81  90 135   0  21 136   0  21 136   0  21 201 179 182  64  64  64
 64  64  64 153 153 153 241 241 241 253 253 253 225 225 225  78  78  78   1   1   1  83  83  83
199 199 199 180 180 180  86  86  86   0   0   0   0   0   0   0   0   0   0   0   0   0   0   0
  4   4   4   0   0   0   1   1   1  16  16  16 149 149 149 229 229 229 211 211 211  35  35  35
 41  41  41 215 215 215 137 137 137   0   0   0   0   0   0   1   1   1  45  45  45 171 171 171
213 213 213 220 220 220  51  51  51 110 110 110 245 245 245 239 239 239  99  99  99   0   0   0
  0   0   0   0   0   0   9   9   9 217 217 217 245 245 245  70  70  70  10  10  10  20  20  20
108 108 108 252 252 252 213 213 213   2   2   2   4   4   4 165 165 165 252 252 252 239 239 239
184 184 184  71  71  71  22  21  21  68  21  29 117   0  17 136   0  21 150  68  80  64  64  64
 64  64  64 153 153 153 237 237 237 231 231 231 154 154 154  84  84  84   3   3   3   1   1   1
  1   1   1   0   0   0   0   0   0   0   0   0   0   0   0   0   0   0   1   1   1   0   0   0
  0   0   0   0   0   0   0   0   0   0   0   0   0   0   0   1   1   1   2   2   2   8   8   8
  1   1   1  38  38  38 123 123 123  56  56  56   1   1   1  55  55  55  24  24  24  38  38  38
218 218 218 244 244 244  77  77  77  92  92  92 255 255 255 254 254 254 229 229 229  29  29  29
  0   0   0   0   0   0   4   4   4 154 154 154 246 246 246 176 176 176   2   2   2  82  82  82
  9   9   9 194 194 194 158 158 158   1   1   1   3   3   3  85  85  85 255 255 255 255 255 255
251 251 251 231 231 231 153 153 153  33  28  29  21   0   1  90   0  10 117   0  16  64  64  64
 63  63  63 146 146 146 131 131 131  12  12  12   6   6   6  69  69  69 127 127 127 162 162 162
136 136 136  18  18  18   3   3   3  66  66  66  20  20  20  35  35  35 156 156 156   1   1   1
 50  50  50 140 140 140   0   0   0   0   0   0  13  13  13 137 137 137 157 157 157 130 130 130
 98  98  98  24  24  24   0   0   0   0   0   0   2   2   2   1   1   1  22  22  22   0   0   0
 55  55  55 230 230 230  94  94  94  70  70  70 255 255 255 255 255 255 251 251 251 177 177 177
  0   0   0   0   0   0   0   0   0   1   1   1  98  98  98 185 185 185  35  35  35  87  87  87
 48  48  48  25  25  25   6   6   6  90  90  90 116 116 116 126 126 126 255 255 255 255 255 255
255 255 255 254 254 254 248 248 248 210 210 210  49   1   4  12   0   0  65   0   5  47  29  32
 60  60  60  58  58  58   5   5   5 121 121 121 228 228 228 255 255 255 255 255 255 255 255 255
247 247 247 205 205 205 131 131 131  20  20  20   1   1   1   3   3   3 120 120 120  55  55  55
  3   3   3 114 114 114   1   1   1   0   0   0   0   0   0   2   2   2  76  76  76 163 163 163
224 224 224 204 204 204  21  21  21  47  47  47 179 179 179 114 114 114   1   1   1   0   0   0
  0   0   0  12  12  12  30  30  30  46  46  46 250 250 250 253 253 253 255 255 255 246 246 246
102 102 102   0   0   0   0   0   0   0   0   0   0   0   0   1   1   1   1   1   1   0   0   0
  2   2   2   2   2   2  81  81  81 250 250 250 255 255 255 255 255 255 255 255 255 255 255 255
255 255 255 255 255 255 255 255 255 253 253 253 167  98 109  63   0   5  15   0   0  19   0   1
 38  38  38   1   1   1 152 152 152 252 252 252 252 252 252 252 252 252 252 252 252 247 247 247
161 161 161  11  11  11 169 169 169 234 234 234 141 141 141  30  30  30   0   0   0   8   8   8
  0   0   0   2   2   2   4   4   4  32  32  32 116 116 116   7   7   7   6   6   6   8   8   8
 15  15  15  50  50  50  82  82  82   6   6   6  70  70  70 234 234 234 123 123 123   1   1   1
  1   1   1   2   2   2  29  29  29   0   0   0  62  62  62 170 170 170 244 244 244 251 251 251
230 230 230  42  42  42   0   0   0   0   0   0   9   9   9 148 148 148 130 130 130   2   2   2
105 105 105  90  90  90  29  29  29 232 232 232 255 255 255 255 255 255 255 255 255 255 255 255
255 255 255 255 255 255 255 255 255 252 252 254 242 239 245 113   8  30  31   0   3   5   0   0
  3   3   3   8   8   8 137 137 137 153 153 153 158 158 158 158 158 158 158 158 158 158 158 158
142 142 142  12  12  12   3   3   3 125 125 125 157 157 157 140 140 140   1   1   1   0   0   0
  0   0   0   0   0   0   2   2   2  19  19  19 119 119 119 120 120 120   1   1   1   9   9   9
 91  91  91  77  77  77  37  37  37   2   2   2   0   0   0   6   6   6  67  67  67  48  48  48
  0   0   0   2   2   2 130 130 130   1   1   1  61  61  61   3   3   3  34  34  34 141 141 141
231 231 231 204 204 204  14  14  14   0   0   0   0   0   0  53  53  53 227 227 227  37  37  37
118 118 118 221 221 221  20  20  20 111 111 111 253 253 253 255 255 255 255 255 255 255 255 255
254 254 255 253 253 254 248 249 253 229 231 248 203 206 240 118  89 137  18   2  19   2   0   3
  0   0   0   3   3   3   8   8   8   3   3   3   3   3   3   3   3   3   3   3   3   3   3   3
  3   3   3   3   3   3   3   3   3   1   1   1   0   0   0   0   0   0   3   3   3   0   0   0
  0   0   0   0   0   0   0   0   0   0   0   0   0   0   0   0   0   0   0   0   0   0   0   0
  0   0   0   0   0   0   0   0   0   0   0   0   1   1   1   0   0   0   1   1   1   2   2   2
  0   0   0   0   0   0   0   0   0   0   0   0  49  49  49  77  77  77  44  44  44   1   1   1
  7   7   7  89  89  89 122 122 122   1   1   1   0   0   0   1   1   1  74  74  74  59  59  59
 48  48  48 224 224 224 130 130 130   7   7   7 189 189 189 238 238 238 234 234 234 227 227 227
213 214 218 184 185 197 141 142 168  87  90 131  44  46  80   7   8  22   7   3  23   7   3  24
  0   0   0 121 121 121 241 241 241 253 253 253 248 248 248 248 248 248 248 248 248 248 248 248
248 248 248 248 248 248 242 242 242 141 141 141   5   5   5  90  90  90 227 227 227  94  94  94
 15  15  15  67  67  67   2   2   2  88  88  88  91  91  91  16  16  16   2   2   2  17  17  17
 21  21  21   0   0   0   1   1   1  95  95  95 168 168 168  84  84  84   0   0   0  24  24  27
  0   0   0   8   8  12   0   0   0   0   0   0   0   0   0   1   1   2   5   5   8   3   3   4
  0   0   0   0   0   0   0   0   0   0   0   0   0   0   0   0   0   0   0   0   0   0   0   0
  0   0   0   0   0   0   0   0   1   0   0   0   0   0   1   6   6   9   6   6   9   5   5   8
  4   4   7   3   3   6   2   2   5   4   4  15  20  22  56  50  54 117  55  42 126  12   7  38
  0   0   0 126 126 126 240 240 240 255 255 255 255 255 255 255 255 255 255 255 255 255 255 255
255 255 255 255 255 255 255 255 255 250 250 250 164 164 164   9   9   9  72  72  72 194 194 194
  6   6   6  32  32  32   2   2   2 113 113 113 254 254 254 243 243 243 179 179 179 104 104 104
 26  26  27   2   2   2   1   1   1   1   1   1  32  33  40  53  53  64   0   0   0   0   0   1
 30  32  53 112 117 194  56  60 105   0   0   0  20  21  44  50  52  96  18  20  42   0   0   0
  0   0   0   0   0   1   0   0   0   0   0   0   0   0   0   0   0   0   0   0   0   0   0   0
  0   0   0  18  20  41  13  14  31   0   0   1   0   0   1  35  37  68  76  81 138  83  87 150
 79  84 156  78  84 168  82  89 186  92  99 201  99 106 206 102 109 210  78  72 164  13   7  38
  0   0   0  48  48  48 176 176 176 248 248 248 252 252 252 255 255 255 255 255 255 255 255 255
255 255 255 255 255 255 255 255 255 255 255 255 251 251 251 187 187 187  22  22  22  32  32  32
 48  48  48   0   0   0   8   8   8 209 209 212 244 245 252 238 239 251 233 234 249 226 228 247
204 207 239 144 147 189  89  92 134  53  56  92  28  29  53   0   1   2   0   0   2  19  22  55
 92  99 205  93 100 211  79  86 185   0   0   0   0   0   2  41  46 105  55  60 133   2   3  15
  2   3  14  22  24  63   1   1   8   0   0   1   0   0   0   0   0   0   0   0   0   0   0   0
  0   0   2  49  53 116  92 100 207  75  82 170  22  25  61   0   0   0  11  12  36  70  76 156
 97 104 208 100 108 212 102 109 214 104 111 215 104 111 215 107 114 216 104 109 189  26  28  54
  0   0   0   5   5   5   3   3   3  47  47  47 154 154 154 236 236 236 251 251 251 254 254 254
255 255 255 255 255 255 248 249 253 242 243 252 235 236 250 227 229 246 181 182 200  29  29  34
  0   0   0   0   0   0   6   6  10 177 180 222 183 186 236 176 180 234 169 173 232 160 165 230
134 139 223 113 119 217 104 111 215  98 106 213  97 104 211  79  85 177  58  63 135  80  86 183
 98 106 213 107 114 216 100 107 201   0   0   0   7   9  27   0   0   0   0   0   1  33  35  76
 94 100 194 105 112 215  99 105 204  71  76 151  37  40  85   2   2   9   0   0   0   0   0   0
  0   0   1  36  39  84 102 109 212 103 110 213  90  96 187   2   3  11   0   0   0   1   1   3
 50  54 110 101 108 208 105 112 215 115 122 218 148 153 227 180 184 235 171 173 208  48  49  59
  0   0   0  80  80  80 175 175 175  87  87  87   5   5   5  18  18  18 121 121 121 221 221 221
251 251 251 253 253 254 241 241 251 227 228 248 214 216 244 199 202 240 185 188 236 150 154 204
 31  33  50   0   0   0   2   3   8 117 123 205 123 129 220 120 127 219 116 123 218 112 119 217
103 110 215  97 104 213 102 109 214 110 116 216 110 117 217 110 116 216 117 124 218 124 130 220
132 137 222 154 159 228 156 159 217   4   4   9   0   0   1   2   2   5   2   2   5  61  63  94
146 151 220 150 155 227 148 153 227 147 152 226 145 150 225 132 137 207  47  49  78   0   0   0
  0   0   0   1   1   2  68  72 115 124 128 203 130 136 215  77  80 131   0   0   1  28  30  55
  2   2   5  47  49  74 154 157 217 190 193 238 213 215 244 234 235 249 220 220 221  64  64  64
  0   0   0   0   0   0  72  72  72 195 195 195 217 217 217 123 123 123  20  20  20   7   7   7
101 101 101 206 206 207 237 238 247 227 229 246 217 219 245 205 207 242 192 195 238 179 182 234
153 157 213  40  41  63   1   1   4  89  93 148 134 138 221 132 137 222 128 134 221 126 132 221
135 141 223 143 148 225 147 152 226 163 167 231 170 174 232 165 169 231 186 189 237 206 208 242
228 229 247 240 240 244 156 156 159   3   3   3  43  44  45 197 198 204 152 152 159   7   7   7
 83  83  89 221 222 236 231 231 248 229 230 248 226 227 247 223 225 246 198 199 219  22  23  26
  0   0   0   0   0   0   0   0   0   9   9  12 104 105 119 178 180 204  45  46  53  40  41  48
146 147 166  13  13  16  59  60  66 221 222 230 255 255 255 255 255 255 221 221 221  64  64  64
  8   8   8  19  19  19  45  45  45   4   4   4  79  79  79 194 194 194 232 232 232 143 143 143
 32  32  32   2   2   2  81  81  82 188 189 192 239 240 247 239 240 249 238 238 250 235 236 250
226 227 244 145 146 159   0   0   0   5   6   7 134 135 155 203 205 239 199 201 240 193 196 239
205 208 242 220 221 246 238 238 250 255 255 255 255 255 255 253 254 255 253 253 254 250 251 252
229 230 231 103 103 103   1   1   1   5   5   5 111 111 111 255 255 255 251 251 251 176 176 176
 13  13  13  71  71  71 232 232 232 254 254 254 255 255 255 255 255 255 251 251 251 179 179 179
  1   1   1  30  30  30  11  11  11   0   0   0   0   0   0   8   8   8  56  56  56   3   3   3
140 140 140 196 196 196  25  25  25  66  66  66 239 239 239 255 255 255 221 221 221  64  64  64
 17  17  17  32  32  32 235 235 235 169 169 169  48  48  48   4   4   4  70  70  70 182 182 182
198 198 198  62  62  62   0   0   0   1   1   1  67  67  67 186 186 186 249 249 249 251 251 251
248 248 248 163 163 163   1   1   1  89  89  89   7   7   7 156 156 156 252 252 252 255 255 255
255 255 255 255 255 255 255 255 255 255 255 255 255 255 255 253 253 253 245 245 245 159 159 159
 27  27  27  20  20  20 151 151 151  77  77  77  93  93  93 255 255 255 255 255 255 252 252 252
194 194 194  25  25  25  52  52  52 220 220 220 253 253 253 255 255 255 255 255 255 245 245 245
 69  69  69   4   4   4  97  97  97   0   0   0  25  25  25 107 107 107  17  17  17   1   1   1
 19  19  19 216 216 216 196 196 196  18  18  18  79  79  79 244 244 244 221 221 221  63  63  63
  4   4   4   5   5   5 234 234 234 255 255 255 249 249 249 174 174 174  41  41  41   0   0   0
  0   0   0   0   0   0   2   2   2   3   3   3   2   2   2   2   2   2  32  32  32 106 106 106
169 169 169 147 147 147  11  11  11 228 228 228 112 112 112   7   7   7 158 158 158 252 252 252
255 255 255 255 255 255 255 255 255 254 254 254 248 248 248 199 199 199  63  63  63   5   5   5
 96  96  96 225 225 225 245 245 245  95  95  95  75  75  75 254 254 254 254 254 254 254 254 254
253 253 253 210 210 210  40  40  40  33  33  33 200 200 200 253 253 253 255 255 255 243 243 243
 48  48  48   1   1   1  27  27  27  57  57  57   1   1   1  70  70  70 216 216 216 114 114 114
  5   5   5  44  44  44 184 184 184 182 182 182  11  11  11 106 106 106 218 218 218  62  62  62
  0   0   0   2   2   2 196 196 196 252 252 252 251 251 251 216 216 216  23  23  23  38  38  38
 66  66  66   1   1   1  46  46  46 160 160 160 213 213 213 167 167 167  58  58  58   0   0   0
  0   0   0   0   0   0   5   5   5 171 171 171 236 236 236 105 105 105   6   6   6 162 162 162
252 252 252 252 252 252 251 251 251 219 219 219  93  93  93   1   1   1  47  47  47 186 186 186
248 248 248 245 245 245 225 225 225  94  94  94  47  47  47 219 219 219 219 219 219 228 228 228
238 238 238 245 245 245 218 218 218  56  56  56  13  13  13 172 172 172 250 250 250 223 223 223
  5   5   5 120 120 120  26  26  26  38  38  38  11  11  11   1   1   1  90  90  90 243 243 243
170 170 170   0   0   0   1   1   1  97  97  97 137 137 137   5   5   5 129 129 129  60  60  60
  0   0   0   1   1   1 100 100 100 167 167 167 162 162 162  72  72  72   4   4   4 143 143 143
164 164 164 102 102 102   2   2   2   0   0   0  31  31  31 136 136 136 162 162 162  88  88  88
  0   0   0   0   0   0   0   0   0   0   0   0  26  26  26 112 112 112  32  32  32   4   4   4
136 136 136 167 167 167 156 156 156  17  17  17   0   0   0   2   2   2  59  59  59  40  40  40
 11  11  11   0   0   0   0   0   0   0   0   0   0   0   0   2   2   2   2   2   2   1   1   1
  1   1   1   2   2   2  17  17  17  30  30  30   0   0   0   3   3   3  99  99  99  87  87  87
  6   6   6 176 176 176 167 167 167   1   1   1  14  14  14   0   0   0   2   2   2 112 112 112
242 242 242  82  82  82   0   0   0   1   1   1  28  28  28  45  45  45   5   5   5  34  34  34
  0   0   0   0   0   0   0   0   0   2   2   2   0   0   0   0   0   0   3   3   3   3   3   3
  3   3   3   3   3   3   3   3   3   3   3   3   3   3   3   2   2   2   1   1   1   0   0   0
  0   0   0   0   0   0   0   0   0   1   1   1   0   0   0   0   0   0   0   0   0   0   0   0
  0   0   0   0   0   0   0   0   0   0   0   0   0   0   0   0   0   0   0   0   0   0   0   0
  0   0   0   0   0   0   0   0   0   0   0   0   6   6   6 184 184 184 189 189 189 180 180 180
169 169 169 157 157 157 141 141 141 120 120 120  98  98  98  65  65  65   0   0   0   0   0   0
  0   0   0   1   1   1   1   1   1   1   1   1   0   0   0   0   0   0   0   0   0   3   3   3
133 133 133 210 210 210  10  10  10  73  73  73  63  63  63   0   0   0   0   0   0   0   0   0
 33  33  33   0   0   0  17  17  17 222 222 222  94  94  94  41  41  41 236 236 236 240 240 240
240 240 240 240 240 240 240 240 240 240 240 240 239 239 239 218 218 218 126 126 126  22  22  22
  1   1   1   1   1   1   4   4   4 146 146 146  59  59  59   1   1   1   0   0   0   0   0   0
  0   0   0   0   0   0   0   0   0   0   0   0   0   0   0   0   0   0   0   0   0   2   2   2
 17  17  17  20  20  20   2   2   2   0   0   0   3   3   3 137 137 137 249 249 249 250 250 250
251 251 251 251 251 251 251 251 251 250 250 250 235 235 235 136 136 136   5   5   5   2   2   2
 25  25  25 149 149 149 161 161 161 128 128 128  71  71  71   0   0   0   0   0   0   0   0   0
  1   1   1  64  64  64  36  36  36   7   7   7 174 174 174  79  79  79   0   0   0   0   0   0
 58  58  58  12  12  12   5   5   5 164 164 164  22  22  22 132 132 132 255 255 255 255 255 255
255 255 255 255 255 255 255 255 255 255 255 255 255 255 255 255 255 255 255 255 255 242 242 242
161 161 161  48  48  48   0   0   0  36  36  36 132 132 132 155 155 155  76  76  76   1   1   1
  1   1   1   1   1   1   8   8   8   2   2   2   1   1   1  34  34  34  95  95  95 120 120 120
 88  88  88  50  50  50  10  10  10   1   1   1   0   0   0   0   0   0  34  34  34  74  74  74
106 106 106 124 124 124 119 119 119  84  84  84  17  17  17   7   7   7 110 110 110 198 198 198
 50  50  50  16  16  16 161 161 161 250 250 250 244 244 244 103 103 103   0   0   0   0   0   0
  1   1   1   0   0   0   0   0   0   1   1   1   0   0   0   0   0   0   1   1   1   7   7   7
 62  62  62  84  84  84   0   0   0  24  24  24  10  10  10 213 213 213 255 255 255 255 255 255
255 255 255 255 255 255 255 255 255 255 255 255 255 255 255 255 255 255 255 255 255 255 255 255
250 250 250 163 163 163   2   2   2  93  93  93  12  12  12   6   6   6  81  81  81 136 136 136
125 125 125 106 106 106 208 208 208 207 207 207 122 122 122  33  33  33   3   3   3  34  34  34
124 124 124 204 204 204 242 242 242 171 171 171   0   0   0  36  36  36   1   1   1  87  87  87
 58  58  58  38  38  38  42  42  42  76  76  76 135 135 135 217 217 217 255 255 255 254 254 254
238 238 238 103 103 103   5   5   5  96  96  96 233 233 233 243 243 243  97  97  97   1   1   1
 11  11  11  64  64  64   7   7   7 109 109 109   0   0   0   0   0   0  54  54  54  57  57  57
